Coordinates
version=1
nRows=17
nColumns=24
inDegrees=yes

Units are S.I. units (second, meters, Newtons, ...)
Angles are in degrees.

endheader
time	pelvis_tilt	pelvis_list	pelvis_rotation	pelvis_tx	pelvis_ty	pelvis_tz	hip_flexion_r	hip_adduction_r	hip_rotation_r	knee_angle_r	ankle_angle_r	subtalar_angle_r	mtp_angle_r	hip_flexion_l	hip_adduction_l	hip_rotation_l	knee_angle_l	ankle_angle_l	subtalar_angle_l	mtp_angle_l	lumbar_extension	lumbar_bending	lumbar_rotation
      5.19500000	     14.64687568	     -2.09171645	     -1.74100962	      1.53853448	      0.73120471	     -0.27104341	    -30.97539802	      3.35295336	     -3.61351148	    -18.05977085	     31.45880344	     23.51076178	      0.00000000	     14.30754354	      1.00477641	     -0.81323372	    -12.72482889	     19.13716737	      5.21923768	      0.00000000	    -31.90459316	      2.92149869	     15.95768623
      5.20000000	     14.61214344	     -1.64472989	     -1.90829325	      1.54712360	      0.73100710	     -0.27135543	    -30.73280008	      2.66626535	     -3.76257988	    -19.78524291	     30.70818886	     23.87746296	      0.00000000	     14.27037801	      1.58550316	     -0.68768912	    -13.47449283	     18.60405026	      4.52145984	      0.00000000	    -31.72185839	      2.37352528	     15.86093173
      5.20500000	     14.59706893	     -1.16336317	     -2.01579103	      1.55573828	      0.73090361	     -0.27174856	    -30.45132470	      1.96003273	     -4.03779204	    -21.59088043	     29.73719803	     24.27796108	      0.00000000	     14.23161383	      2.22543249	     -0.43662437	    -14.36391335	     18.02462650	      3.66012927	      0.00000000	    -31.55799524	      1.81646221	     15.74069297
      5.21000000	     14.60403126	     -0.64385371	     -2.10433132	      1.56435884	      0.73090336	     -0.27216871	    -30.12307445	      1.22247343	     -4.32188769	    -23.49164551	     28.60579697	     24.57590116	      0.00000000	     14.16774351	      2.90902227	     -0.17739227	    -15.33015665	     17.41967945	      2.76850149	      0.00000000	    -31.42197064	      1.23163143	     15.57468521
      5.21500000	     14.63908060	     -0.10535110	     -2.14872996	      1.57297778	      0.73100843	     -0.27264904	    -29.76233699	      0.47655467	     -4.66237992	    -25.46455291	     27.26513962	     24.82072804	      0.00000000	     14.07001952	      3.62800284	      0.15146069	    -16.35421385	     16.82818169	      1.81773844	      0.00000000	    -31.32001373	      0.65119309	     15.37011926
      5.22000000	     14.68237257	      0.47969828	     -2.20683555	      1.58155715	      0.73120321	     -0.27309511	    -29.32960684	     -0.31553755	     -4.98256452	    -27.53196423	     25.85889517	     24.79620780	      0.00000000	     13.95997682	      4.37958961	      0.37520400	    -17.41401523	     16.21324485	      0.97748235	      0.00000000	    -31.23865755	      0.01146405	     15.17740144
      5.22500000	     14.74463753	      1.06768517	     -2.22555442	      1.59012317	      0.73148869	     -0.27361054	    -28.86147142	     -1.10794137	     -5.35720900	    -29.64306142	     24.26402976	     24.66227850	      0.00000000	     13.81284382	      5.15014344	      0.66203036	    -18.48171098	     15.66364685	      0.11392956	      0.00000000	    -31.18629151	     -0.60504051	     14.96627767
      5.23000000	     14.82084392	      1.67289883	     -2.24296053	      1.59863128	      0.73186871	     -0.27411982	    -28.33999522	     -1.91833559	     -5.72460689	    -31.80337160	     22.60314488	     24.26366642	      0.00000000	     13.62745248	      5.92945591	      0.89062802	    -19.52177458	     15.16468037	     -0.62211486	      0.00000000	    -31.16294261	     -1.23500093	     14.74608984
      5.23500000	     14.90252511	      2.28514667	     -2.25471543	      1.60708876	      0.73233098	     -0.27463490	    -27.76197815	     -2.73861703	     -6.08675021	    -33.99584980	     20.87390076	     23.60983998	      0.00000000	     13.40104138	      6.70874605	      1.08123514	    -20.50470039	     14.74929944	     -1.23768050	      0.00000000	    -31.15838660	     -1.86147183	     14.51381311
      5.24000000	     14.97640095	      2.88364506	     -2.26605574	      1.61548490	      0.73284379	     -0.27519460	    -27.11847841	     -3.56013396	     -6.44709758	    -36.19879167	     19.14029132	     22.71984457	      0.00000000	     13.15170856	      7.48535487	      1.30749336	    -21.43861184	     14.45173879	     -1.90099718	      0.00000000	    -31.15518948	     -2.46148656	     14.32237455
      5.24500000	     15.06564745	      3.50547636	     -2.27978369	      1.62380014	      0.73343071	     -0.27570657	    -26.43834231	     -4.40403543	     -6.81150921	    -38.40214729	     17.51693039	     21.45590267	      0.00000000	     12.85399376	      8.25665906	      1.38548168	    -22.30100487	     14.23700008	     -2.27271345	      0.00000000	    -31.18351161	     -3.08748971	     14.11818013
      5.25000000	     15.12497269	      4.09221957	     -2.31141089	      1.63202876	      0.73405809	     -0.27623506	    -25.66306633	     -5.22071041	     -7.09183125	    -40.59653711	     15.95919523	     19.86408792	      0.00000000	     12.53290714	      8.99550655	      1.48771498	    -23.05503363	     14.15290090	     -2.66445190	      0.00000000	    -31.19019186	     -3.66580614	     13.93881513
      5.25500000	     15.19505565	      4.71259622	     -2.33693541	      1.64017784	      0.73474712	     -0.27675087	    -24.86066593	     -6.08078923	     -7.40802088	    -42.75704073	     14.56414818	     18.02476778	      0.00000000	     12.15709915	      9.75052563	      1.50062509	    -23.70891909	     14.12772158	     -2.81942357	      0.00000000	    -31.22145275	     -4.27233921	     13.73259066
      5.26000000	     15.20971521	      5.21638861	     -2.40244643	      1.64819810	      0.73544214	     -0.27721762	    -23.92475777	     -6.81293333	     -7.55369337	    -44.88520123	     13.31243978	     15.66925770	      0.00000000	     11.78749736	     10.37564532	      1.50014670	    -24.25702226	     14.29442058	     -3.04212804	      0.00000000	    -31.20291917	     -4.76259519	     13.62104296
      5.26500000	     15.21665913	      5.73516113	     -2.46746184	      1.65614157	      0.73618044	     -0.27768315	    -22.94565934	     -7.56790627	     -7.70080967	    -46.94556500	     12.23633830	     13.12607488	      0.00000000	     11.37805175	     11.00132584	      1.43547193	    -24.69896446	     14.53169636	     -3.04477317	      0.00000000	    -31.18201528	     -5.25885127	     13.48553918
      5.27000000	     15.21533656	      6.22522649	     -2.54403751	      1.66398225	      0.73695328	     -0.27811401	    -21.91496822	     -8.28679877	     -7.78838112	    -48.93185479	     11.34488123	     10.33147478	      0.00000000	     10.92643635	     11.58709443	      1.33281192	    -25.03010582	     14.86562488	     -2.97435405	      0.00000000	    -31.16207714	     -5.72625689	     13.36672741
      5.27500000	     15.21149575	      6.69351806	     -2.63026650	      1.67172704	      0.73776544	     -0.27853050	    -20.84360546	     -8.98696401	     -7.84435698	    -50.83010442	     10.61585761	      7.35804085	      0.00000000	     10.43641064	     12.13961939	      1.15901167	    -25.26994850	     15.24926924	     -2.86360324	      0.00000000	    -31.14763355	     -6.16209753	     13.22209707
